<svg width="43" height="43" viewBox="0 0 43 43" fill="none" xmlns="http://www.w3.org/2000/svg">
<rect y="0.901855" width="42.0226" height="41.3318" rx="13" fill="#409789"/>
<path d="M21.6964 11.0825C21.275 10.8416 20.7546 10.8416 20.3288 11.0825L10.6951 16.5875C10.1532 16.8971 9.88651 17.5336 10.0456 18.1358C10.2048 18.7379 10.7553 19.1593 11.3789 19.1593H12.7551V28.1049L10.5531 29.7564C10.2048 30.0145 10.0026 30.4231 10.0026 30.8574C10.0026 31.6187 10.6176 32.2337 11.3789 32.2337H30.6463C31.4076 32.2337 32.0226 31.6187 32.0226 30.8574C32.0226 30.4231 31.8204 30.0145 31.4721 29.7564L29.2701 28.1049V19.1593H30.6463C31.2699 19.1593 31.8161 18.7379 31.9753 18.1358C32.1344 17.5336 31.8678 16.8971 31.3259 16.5875L21.6921 11.0825H21.6964ZM27.2057 19.1593V28.1049H24.4532V19.1593H27.2057ZM22.3889 19.1593V28.1049H19.6364V19.1593H22.3889ZM17.572 19.1593V28.1049H14.8195V19.1593H17.572ZM21.0126 14.3425C21.3776 14.3425 21.7277 14.4875 21.9858 14.7456C22.2439 15.0037 22.3889 15.3537 22.3889 15.7187C22.3889 16.0837 22.2439 16.4338 21.9858 16.6919C21.7277 16.95 21.3776 17.095 21.0126 17.095C20.6476 17.095 20.2976 16.95 20.0395 16.6919C19.7814 16.4338 19.6364 16.0837 19.6364 15.7187C19.6364 15.3537 19.7814 15.0037 20.0395 14.7456C20.2976 14.4875 20.6476 14.3425 21.0126 14.3425Z" fill="white"/>
</svg>
