<svg width="43" height="41" viewBox="0 0 43 41" fill="none" xmlns="http://www.w3.org/2000/svg">
<rect y="0.901855" width="42.0226" height="39.9186" rx="13" fill="#409789"/>
<path fill-rule="evenodd" clip-rule="evenodd" d="M15.3841 10.9019C15.0874 10.902 14.7953 10.9753 14.5338 11.1154C14.2723 11.2555 14.0495 11.458 13.885 11.7049L10.19 17.2459C9.96457 17.5856 9.93781 18.0201 10.12 18.3845C12.1433 22.4279 14.9532 26.0268 18.3852 28.9702L20.1868 30.5156C20.4164 30.7123 20.7087 30.8204 21.011 30.8204C21.3133 30.8204 21.6056 30.7123 21.8351 30.5156L23.6368 28.9713C27.0693 26.0276 29.8796 22.4284 31.903 18.3845C32.0852 18.0201 32.0574 17.5856 31.8319 17.2459L28.1349 11.7049C27.9704 11.4583 27.7477 11.2561 27.4864 11.1162C27.2251 10.9763 26.9333 10.903 26.6369 10.9029L15.3841 10.9019ZM15.1699 12.5604C15.1935 12.5252 15.2253 12.4964 15.2627 12.4765C15.3 12.4565 15.3417 12.4461 15.3841 12.4462H17.7932L15.8216 17.1779C15.7778 17.2867 15.7434 17.3989 15.7187 17.5135C14.9936 17.4595 14.2694 17.3942 13.5463 17.3179L12.0998 17.1666L15.1699 12.5604ZM12.0329 18.7119C13.8812 22.1006 16.3197 25.1321 19.2335 27.6637L16.0162 19.0836C15.1384 19.0232 14.2618 18.947 13.3868 18.855L12.0329 18.7119ZM17.7015 19.1793L21.0105 28.0066L24.3204 19.1793C22.1149 19.2793 19.906 19.2793 17.7005 19.1793M26.0058 19.0836L22.7885 27.6637C25.7023 25.1321 28.1407 22.1006 29.9891 18.7119L28.6352 18.855C27.7601 18.9463 26.8836 19.0225 26.0058 19.0836ZM29.9211 17.1666L28.4736 17.319C27.7505 17.3953 27.0263 17.4605 26.3013 17.5146C26.277 17.3996 26.2429 17.287 26.1993 17.1779L24.2278 12.4462H26.6369C26.6792 12.4461 26.7209 12.4565 26.7583 12.4765C26.7956 12.4964 26.8275 12.5252 26.851 12.5604L29.9211 17.1666ZM24.7086 17.6144C22.2439 17.7421 19.7785 17.7421 17.3124 17.6144L19.4662 12.4462H22.5548L24.7086 17.6144Z" fill="white"/>
</svg>
