<svg width="345" height="150" viewBox="0 0 345 150" fill="none" xmlns="http://www.w3.org/2000/svg">
<path d="M145.266 143.686H129.319C147.954 119.315 151.81 85.8313 139.1 57.8013C129.903 37.5173 113.801 22.6951 91.8769 17.3793C60.2573 9.71913 23.2617 26.7398 16.2027 60.0684C10.3287 87.8323 27.2121 118.688 57.3976 120.148C81.1768 121.298 102.989 102.311 97.5018 77.4069C93.6374 59.8452 76.3076 48.6726 59.0292 56.2813C45.6583 62.1638 40.583 79.966 51.1801 90.8294C62.9881 102.929 85.2988 91.3274 77.3724 75.3974C77.1491 74.9508 76.445 74.3239 76.7455 73.8516C76.7799 73.8001 77.6386 73.0959 77.6987 73.0873C78.0337 73.0272 79.4249 75.3459 79.6396 75.7581C85.7196 87.4802 75.8009 99.5201 63.7353 100.327C45.9074 101.521 35.5163 83.3324 39.8616 67.3164C43.6831 53.2327 58.3422 44.4218 72.5719 44.8941C98.8415 45.7614 114.102 72.5978 108.339 96.772C102.122 122.835 74.4527 137.16 48.9216 132.806C13.6093 126.786 -5.77305 89.9191 1.52645 56.2298C11.0501 12.2868 59.4071 -9.07062 100.671 3.63049C144.433 17.1045 167.517 64.7487 159.307 108.563C156.98 121.006 152.248 133.149 145.266 143.686Z" fill="#409789"/>
<path d="M197.828 31.8755C196.479 31.0851 195.51 29.8414 194.898 28.1657C194.287 26.4899 193.992 24.2977 193.992 21.5786V21.3572C193.992 17.3734 194.709 14.4434 196.153 12.578C197.597 10.7125 199.894 9.77448 203.056 9.77448H203.182C205.596 9.77448 207.482 10.3752 208.842 11.5872C210.202 12.7993 210.992 14.728 211.224 17.3734L208.652 17.8793C208.484 16.4354 208.157 15.2971 207.683 14.475C207.208 13.653 206.587 13.0733 205.817 12.7466C205.058 12.4199 204.11 12.2512 202.982 12.2512H202.919C201.475 12.2512 200.305 12.5463 199.409 13.126C198.513 13.7057 197.828 14.6647 197.375 16.0033C196.922 17.3418 196.69 19.1229 196.69 21.3467V21.568C196.69 23.7918 196.901 25.5625 197.322 26.8693C197.744 28.1762 198.429 29.1142 199.357 29.7044C200.284 30.2841 201.57 30.5792 203.203 30.5792H203.33C204.921 30.5792 206.133 30.1682 206.977 29.3356C207.809 28.5135 208.368 27.1223 208.642 25.1725L211.213 25.6468C210.897 28.2816 210.054 30.1681 208.684 31.3275C207.314 32.4868 205.522 33.0665 203.288 33.0665H203.193C200.948 33.0665 199.146 32.666 197.797 31.8755H197.828Z" fill="#409789"/>
<path d="M215.208 10.2912H217.822V30.6217L217.411 30.179H227.813V32.5609H215.218V10.2912H215.208Z" fill="#409789"/>
<path d="M230.163 6.57062L233.125 2.56567L234.685 3.90416L231.312 7.56133L230.163 6.57062ZM231.122 10.291H233.736V32.5607H231.122V10.291Z" fill="#409789"/>
<path d="M238.532 10.2912H241.082L251.959 28.8405L251.611 29.0618V10.2912H254.088V32.5609H251.516L240.418 13.7587H241.019V32.5609H238.542V10.2912H238.532Z" fill="#409789"/>
<path d="M258.862 10.2912H261.465V32.5609H258.862V10.2912Z" fill="#409789"/>
<path d="M269.275 31.8755C267.926 31.0851 266.956 29.8414 266.345 28.1657C265.734 26.4899 265.439 24.2977 265.439 21.5786V21.3572C265.439 17.3734 266.155 14.4434 267.599 12.578C269.043 10.7125 271.341 9.77448 274.503 9.77448H274.629C277.043 9.77448 278.929 10.3752 280.289 11.5872C281.648 12.7993 282.439 14.728 282.671 17.3734L280.099 17.8793C279.93 16.4354 279.604 15.2971 279.129 14.475C278.655 13.653 278.033 13.0733 277.264 12.7466C276.505 12.4199 275.556 12.2512 274.429 12.2512H274.366C272.922 12.2512 271.752 12.5463 270.856 13.126C269.96 13.7057 269.275 14.6647 268.822 16.0033C268.369 17.3418 268.137 19.1229 268.137 21.3467V21.568C268.137 23.7918 268.348 25.5625 268.769 26.8693C269.191 28.1762 269.876 29.1142 270.803 29.7044C271.731 30.2841 273.017 30.5792 274.65 30.5792H274.777C276.368 30.5792 277.58 30.1682 278.423 29.3356C279.256 28.5135 279.814 27.1223 280.088 25.1725L282.66 25.6468C282.344 28.2816 281.501 30.1681 280.131 31.3275C278.76 32.4868 276.969 33.0665 274.734 33.0665H274.64C272.395 33.0665 270.592 32.666 269.243 31.8755H269.275Z" fill="#409789"/>
<path d="M292.325 10.2912H295.318L303.138 32.5609H300.398L297.889 25.3414L297.921 25.0569L293.273 11.4084H294.201L289.521 25.1517L289.49 25.4679L287.108 32.5609H284.336L292.325 10.2912ZM288.984 24.2875H298.69L299.196 26.3848H288.415L288.984 24.2875Z" fill="#409789"/>
<path d="M198.05 73.7383C196.532 73.1797 195.288 72.21 194.329 70.8294C193.37 69.4487 192.738 67.5095 192.443 65.0116L197.934 63.9155C198.092 65.2962 198.398 66.3923 198.851 67.1933C199.293 67.9943 199.905 68.5739 200.685 68.9217C201.465 69.2696 202.445 69.4487 203.636 69.4487H203.794C205.554 69.4487 206.84 69.0377 207.662 68.2051C208.473 67.383 208.884 66.1288 208.884 64.4425V45.4506H214.333V65.1697C214.333 67.1511 213.901 68.848 213.058 70.2497C212.204 71.662 210.982 72.7265 209.401 73.4642C207.82 74.202 205.954 74.5603 203.804 74.5603H203.678C201.454 74.5603 199.589 74.2863 198.06 73.7277L198.05 73.7383Z" fill="#409789"/>
<path d="M226.801 45.4608H233.262L243.306 73.9276H237.53L234.484 64.9797L234.642 64.4527L228.951 47.3262H230.743L225.094 64.6108L225.052 65.2643L222.248 73.9276H216.473L226.801 45.4608ZM224.082 62.8191H236.118L236.856 67.0876H223.313L224.082 62.8191Z" fill="#409789"/>
<path d="M246.278 45.4608H251.769V73.9276H246.278V45.4608Z" fill="#409789"/>
<path d="M256.902 45.4608H269.718C272.542 45.4608 274.703 46.2301 276.22 47.7794C277.738 49.3287 278.497 51.5631 278.497 54.493V54.6933C278.497 57.1595 277.907 59.1514 276.726 60.6691C275.546 62.1867 273.923 63.0826 271.868 63.3566L273.575 62.2605L280.647 73.9382H274.386L268.242 63.6517L269.222 64.1787H261.866L262.393 63.4515V73.9487H256.902V45.4819V45.4608ZM261.897 59.4887H268.242C269.76 59.4887 270.887 59.0776 271.615 58.245C272.352 57.423 272.711 56.2847 272.711 54.8513V54.767C272.711 53.3548 272.31 52.2692 271.509 51.5104C270.708 50.7515 269.507 50.3721 267.905 50.3721H262.045L262.372 50.0454V59.9735L261.887 59.4887H261.897Z" fill="#409789"/>
<path d="M291.144 45.4608H301.188C304.118 45.4608 306.479 46.0193 308.281 47.1471C310.083 48.2748 311.39 49.8662 312.202 51.9425C313.013 54.0187 313.424 56.5271 313.424 59.4887V59.6468C313.424 62.6294 313.034 65.1694 312.265 67.2773C311.496 69.3746 310.199 71.0082 308.397 72.1781C306.595 73.348 304.192 73.9276 301.178 73.9276H291.134V45.4608H291.144ZM295.571 69.0057H300.45C302.242 69.0057 303.675 68.679 304.761 68.0256C305.847 67.3721 306.626 66.3814 307.101 65.0535C307.575 63.7255 307.807 62.0076 307.807 59.8892V59.4781C307.807 57.423 307.564 55.7261 307.08 54.3982C306.595 53.0702 305.815 52.0689 304.74 51.3839C303.665 50.7094 302.242 50.3721 300.45 50.3721H295.571L296.625 49.3182V70.0597L295.571 69.0057Z" fill="#409789"/>
<path d="M317.735 45.4608H336.569V50.3827H322.583L323.237 49.7292V69.3746L322.71 69.0057H336.621V73.9276H317.745V45.4608H317.735ZM322.088 57.4967H336.042V61.5228H322.088V57.4967Z" fill="#409789"/>
<path d="M197.249 114.756C195.436 113.713 194.108 112.121 193.265 109.982C192.422 107.842 192 105.102 192 101.771V101.287C192 96.2699 192.991 92.56 194.972 90.1676C196.954 87.7646 200.073 86.5631 204.331 86.5631H204.616C207.756 86.5631 210.286 87.3852 212.183 89.0188C214.08 90.6629 215.218 93.2451 215.598 96.7652L210.107 97.7454C209.917 96.2593 209.58 95.0684 209.095 94.1831C208.61 93.3084 207.978 92.6654 207.208 92.2754C206.439 91.8855 205.469 91.6852 204.299 91.6852H204.173C202.655 91.6852 201.433 92.0015 200.495 92.6444C199.557 93.2873 198.851 94.3095 198.376 95.7113C197.902 97.1236 197.66 98.989 197.66 101.329V101.613C197.66 103.943 197.881 105.808 198.334 107.21C198.777 108.612 199.494 109.623 200.474 110.256C201.454 110.888 202.761 111.215 204.415 111.215H204.616C206.186 111.215 207.419 110.772 208.294 109.897C209.179 109.012 209.78 107.568 210.107 105.566L215.513 106.546C215.05 109.992 213.869 112.479 211.951 114.029C210.043 115.578 207.588 116.347 204.605 116.347H204.363C201.433 116.347 199.061 115.82 197.249 114.777V114.756Z" fill="#409789"/>
<path d="M227.307 87.1956H233.767L243.812 115.662H238.036L234.99 106.714L235.148 106.187L229.457 89.061H231.249L225.599 106.346L225.557 106.999L222.754 115.662H216.978L227.307 87.1956ZM224.577 104.564H236.613L237.351 108.833H223.808L224.577 104.564Z" fill="#409789"/>
<path d="M251.01 115.262C249.303 114.556 247.943 113.502 246.921 112.09C245.898 110.677 245.372 108.97 245.319 106.967L251.01 106.483C251.063 108.411 251.621 109.792 252.675 110.635C253.729 111.478 255.089 111.9 256.743 111.9H256.902C258.556 111.9 259.81 111.541 260.664 110.825C261.518 110.108 261.95 109.16 261.95 108V107.874C261.95 106.894 261.655 106.103 261.075 105.492C260.496 104.881 259.779 104.417 258.925 104.09C258.071 103.763 256.902 103.416 255.405 103.036C253.403 102.52 251.769 102.014 250.525 101.508C249.282 101.002 248.196 100.222 247.29 99.1682C246.383 98.1143 245.93 96.6915 245.93 94.8998V94.6995C245.93 93.1503 246.373 91.7696 247.248 90.547C248.133 89.3245 249.377 88.3548 250.989 87.6381C252.602 86.9215 254.478 86.5631 256.617 86.5631H257.028C260.116 86.5631 262.582 87.2587 264.406 88.6604C266.239 90.0622 267.315 92.2965 267.641 95.3951L261.908 96.0064C261.686 94.2463 261.128 92.9816 260.222 92.2228C259.315 91.4639 258.145 91.0845 256.701 91.0845H256.459C254.836 91.0845 253.634 91.4113 252.854 92.0647C252.075 92.7181 251.695 93.5402 251.695 94.5414V94.6679C251.695 95.4794 251.959 96.1434 252.486 96.6388C253.013 97.1446 253.677 97.5346 254.478 97.8192C255.279 98.1037 256.396 98.4516 257.829 98.8521C259.947 99.3896 261.697 99.9482 263.078 100.496C264.458 101.055 265.649 101.908 266.661 103.057C267.673 104.206 268.168 105.745 268.168 107.674V107.916C268.168 109.592 267.683 111.078 266.724 112.353C265.765 113.628 264.437 114.608 262.762 115.304C261.075 116 259.199 116.337 257.112 116.337H256.828C254.657 116.337 252.717 115.989 251.01 115.283V115.262Z" fill="#409789"/>
<path d="M278.223 91.5483L278.507 92.1174H269.844V87.1956H292.05V92.1174H283.345L283.672 91.5061V115.662H278.223V91.5483Z" fill="#409789"/>
<path d="M294.896 87.1956H307.712C310.526 87.1956 312.697 87.9649 314.215 89.5142C315.732 91.0635 316.491 93.2978 316.491 96.2277V96.428C316.491 98.8942 315.901 100.886 314.721 102.404C313.54 103.922 311.917 104.817 309.862 105.091L311.569 103.995L318.641 115.673H312.381L306.236 105.386L307.217 105.913H299.85L300.377 105.186V115.683H294.886V87.2166L294.896 87.1956ZM299.902 101.223H306.247C307.765 101.223 308.892 100.812 309.62 99.9798C310.347 99.1578 310.716 98.0195 310.716 96.5861V96.5018C310.716 95.0895 310.315 94.004 309.514 93.2451C308.713 92.4863 307.512 92.1069 305.91 92.1069H300.05L300.377 91.7802V101.708L299.892 101.223H299.902Z" fill="#409789"/>
<path d="M325.397 114.757C323.584 113.713 322.256 112.122 321.413 109.982C320.57 107.843 320.148 105.113 320.148 101.804V101.277C320.148 97.9991 320.591 95.2588 321.487 93.0772C322.383 90.8955 323.753 89.2619 325.597 88.1764C327.441 87.0908 329.771 86.5533 332.595 86.5533H332.795C335.504 86.5533 337.759 87.0908 339.572 88.1553C341.374 89.2303 342.734 90.8428 343.641 93.0139C344.547 95.185 345 97.9358 345 101.266V101.677C345 104.934 344.568 107.632 343.693 109.793C342.818 111.953 341.49 113.576 339.688 114.672C337.886 115.768 335.599 116.317 332.838 116.317H332.511C329.581 116.317 327.21 115.79 325.397 114.746V114.757ZM336.442 110.077C337.38 109.413 338.044 108.391 338.455 107.01C338.866 105.63 339.066 103.785 339.066 101.477V101.319C339.066 99.0425 338.856 97.2086 338.434 95.828C338.012 94.4473 337.338 93.425 336.4 92.7821C335.462 92.1287 334.197 91.8019 332.595 91.8019H332.469C330.814 91.8019 329.497 92.1287 328.527 92.7821C327.547 93.4355 326.851 94.4578 326.43 95.849C326.008 97.2402 325.797 99.0847 325.797 101.361V101.561C325.797 103.817 326.019 105.63 326.451 107.01C326.883 108.391 327.578 109.413 328.527 110.077C329.475 110.741 330.793 111.078 332.469 111.078H332.553C334.208 111.078 335.504 110.752 336.442 110.077Z" fill="#409789"/>
<path d="M200.96 145.594C200.098 145.594 199.31 145.422 198.597 145.077C197.896 144.72 197.293 144.255 196.787 143.68C196.281 143.094 195.89 142.427 195.614 141.679C195.338 140.932 195.2 140.168 195.2 139.386C195.2 138.57 195.344 137.788 195.631 137.04C195.93 136.293 196.338 135.632 196.856 135.057C197.373 134.482 197.982 134.028 198.684 133.695C199.396 133.35 200.167 133.178 200.995 133.178C201.857 133.178 202.639 133.362 203.34 133.729C204.041 134.086 204.645 134.557 205.151 135.144C205.656 135.73 206.047 136.397 206.323 137.144C206.599 137.88 206.737 138.633 206.737 139.403C206.737 140.219 206.588 141.001 206.289 141.748C206.001 142.496 205.599 143.157 205.082 143.732C204.576 144.295 203.966 144.749 203.254 145.094C202.552 145.427 201.788 145.594 200.96 145.594ZM196.769 139.386C196.769 140.007 196.867 140.61 197.063 141.197C197.27 141.771 197.557 142.283 197.925 142.731C198.293 143.18 198.735 143.536 199.253 143.801C199.77 144.065 200.345 144.197 200.977 144.197C201.633 144.197 202.219 144.059 202.736 143.783C203.254 143.496 203.691 143.128 204.047 142.68C204.415 142.22 204.691 141.702 204.875 141.128C205.07 140.553 205.168 139.972 205.168 139.386C205.168 138.765 205.064 138.167 204.857 137.592C204.662 137.006 204.375 136.494 203.995 136.058C203.627 135.609 203.185 135.253 202.667 134.988C202.161 134.724 201.598 134.592 200.977 134.592C200.322 134.592 199.736 134.73 199.218 135.006C198.701 135.281 198.258 135.644 197.89 136.092C197.534 136.54 197.258 137.052 197.063 137.627C196.867 138.202 196.769 138.788 196.769 139.386ZM217.336 134.643H213.111V145.508H211.559V134.643H207.334V133.264H217.336V134.643ZM223.695 145.594C222.833 145.594 222.046 145.422 221.333 145.077C220.631 144.72 220.028 144.255 219.522 143.68C219.016 143.094 218.625 142.427 218.349 141.679C218.073 140.932 217.935 140.168 217.935 139.386C217.935 138.57 218.079 137.788 218.367 137.04C218.666 136.293 219.074 135.632 219.591 135.057C220.108 134.482 220.718 134.028 221.419 133.695C222.132 133.35 222.902 133.178 223.73 133.178C224.592 133.178 225.374 133.362 226.075 133.729C226.777 134.086 227.38 134.557 227.886 135.144C228.392 135.73 228.783 136.397 229.059 137.144C229.335 137.88 229.473 138.633 229.473 139.403C229.473 140.219 229.323 141.001 229.024 141.748C228.737 142.496 228.334 143.157 227.817 143.732C227.311 144.295 226.702 144.749 225.989 145.094C225.288 145.427 224.523 145.594 223.695 145.594ZM219.505 139.386C219.505 140.007 219.603 140.61 219.798 141.197C220.005 141.771 220.292 142.283 220.66 142.731C221.028 143.18 221.471 143.536 221.988 143.801C222.505 144.065 223.08 144.197 223.713 144.197C224.368 144.197 224.954 144.059 225.472 143.783C225.989 143.496 226.426 143.128 226.782 142.68C227.15 142.22 227.426 141.702 227.61 141.128C227.805 140.553 227.903 139.972 227.903 139.386C227.903 138.765 227.8 138.167 227.593 137.592C227.397 137.006 227.11 136.494 226.731 136.058C226.363 135.609 225.92 135.253 225.403 134.988C224.897 134.724 224.333 134.592 223.713 134.592C223.057 134.592 222.471 134.73 221.954 135.006C221.436 135.281 220.994 135.644 220.626 136.092C220.269 136.54 219.993 137.052 219.798 137.627C219.603 138.202 219.505 138.788 219.505 139.386ZM231.629 145.508V133.264H236.871C237.412 133.264 237.906 133.379 238.355 133.609C238.814 133.827 239.205 134.126 239.527 134.505C239.861 134.873 240.119 135.293 240.303 135.764C240.487 136.224 240.579 136.696 240.579 137.178C240.579 137.604 240.516 138.018 240.39 138.42C240.275 138.811 240.102 139.167 239.872 139.489C239.654 139.811 239.384 140.087 239.062 140.317C238.751 140.547 238.401 140.714 238.01 140.817L240.976 145.508H239.217L236.423 141.11H233.181V145.508H231.629ZM233.181 139.731H236.889C237.211 139.731 237.498 139.662 237.751 139.524C238.015 139.386 238.24 139.202 238.424 138.972C238.608 138.731 238.751 138.455 238.855 138.144C238.958 137.834 239.01 137.512 239.01 137.178C239.01 136.834 238.947 136.512 238.82 136.213C238.705 135.902 238.544 135.632 238.337 135.402C238.142 135.161 237.906 134.977 237.63 134.85C237.366 134.712 237.084 134.643 236.785 134.643H233.181V139.731ZM242.963 145.508V133.264H248.205C248.746 133.264 249.24 133.379 249.689 133.609C250.148 133.827 250.539 134.126 250.861 134.505C251.195 134.873 251.453 135.293 251.637 135.764C251.821 136.224 251.913 136.696 251.913 137.178C251.913 137.604 251.85 138.018 251.724 138.42C251.609 138.811 251.436 139.167 251.206 139.489C250.988 139.811 250.718 140.087 250.396 140.317C250.085 140.547 249.735 140.714 249.344 140.817L252.31 145.508H250.551L247.757 141.11H244.515V145.508H242.963ZM244.515 139.731H248.223C248.545 139.731 248.832 139.662 249.085 139.524C249.349 139.386 249.574 139.202 249.758 138.972C249.941 138.731 250.085 138.455 250.189 138.144C250.292 137.834 250.344 137.512 250.344 137.178C250.344 136.834 250.281 136.512 250.154 136.213C250.039 135.902 249.878 135.632 249.671 135.402C249.476 135.161 249.24 134.977 248.964 134.85C248.7 134.712 248.418 134.643 248.119 134.643H244.515V139.731ZM254.297 145.508V133.264H255.849V145.508H254.297ZM260.329 136.161V145.508H258.777V133.264H259.984L267.572 142.8V133.281H269.124V145.508H267.813L260.329 136.161ZM277.014 145.594C276.152 145.594 275.364 145.422 274.651 145.077C273.95 144.72 273.346 144.255 272.841 143.68C272.335 143.094 271.944 142.427 271.668 141.679C271.392 140.932 271.254 140.168 271.254 139.386C271.254 138.57 271.398 137.788 271.685 137.04C271.984 136.293 272.392 135.632 272.91 135.057C273.427 134.482 274.036 134.028 274.738 133.695C275.45 133.35 276.221 133.178 277.048 133.178C277.911 133.178 278.692 133.362 279.394 133.729C280.095 134.086 280.699 134.557 281.205 135.144C281.71 135.73 282.101 136.397 282.377 137.144C282.653 137.88 282.791 138.633 282.791 139.403C282.791 140.219 282.642 141.001 282.343 141.748C282.055 142.496 281.653 143.157 281.136 143.732C280.63 144.295 280.02 144.749 279.308 145.094C278.606 145.427 277.842 145.594 277.014 145.594ZM272.823 139.386C272.823 140.007 272.921 140.61 273.117 141.197C273.323 141.771 273.611 142.283 273.979 142.731C274.347 143.18 274.789 143.536 275.307 143.801C275.824 144.065 276.399 144.197 277.031 144.197C277.687 144.197 278.273 144.059 278.79 143.783C279.308 143.496 279.744 143.128 280.101 142.68C280.469 142.22 280.745 141.702 280.929 141.128C281.124 140.553 281.222 139.972 281.222 139.386C281.222 138.765 281.118 138.167 280.911 137.592C280.716 137.006 280.429 136.494 280.049 136.058C279.681 135.609 279.239 135.253 278.721 134.988C278.215 134.724 277.652 134.592 277.031 134.592C276.376 134.592 275.79 134.73 275.272 135.006C274.755 135.281 274.312 135.644 273.944 136.092C273.588 136.54 273.312 137.052 273.117 137.627C272.921 138.202 272.823 138.788 272.823 139.386ZM292.139 135.833C292.001 135.672 291.817 135.517 291.587 135.368C291.357 135.218 291.098 135.086 290.811 134.971C290.523 134.845 290.207 134.747 289.862 134.678C289.529 134.597 289.178 134.557 288.81 134.557C287.856 134.557 287.155 134.735 286.707 135.092C286.27 135.448 286.051 135.937 286.051 136.558C286.051 136.891 286.114 137.167 286.241 137.385C286.367 137.604 286.563 137.794 286.827 137.954C287.103 138.104 287.442 138.236 287.845 138.351C288.247 138.466 288.724 138.587 289.276 138.713C289.908 138.851 290.477 139.012 290.983 139.196C291.501 139.369 291.938 139.587 292.294 139.851C292.662 140.116 292.938 140.438 293.122 140.817C293.317 141.197 293.415 141.662 293.415 142.214C293.415 142.8 293.3 143.312 293.07 143.749C292.84 144.174 292.524 144.531 292.122 144.818C291.731 145.094 291.265 145.301 290.725 145.439C290.184 145.565 289.598 145.629 288.966 145.629C288.023 145.629 287.126 145.485 286.275 145.197C285.436 144.899 284.672 144.467 283.982 143.904L284.723 142.593C284.907 142.789 285.143 142.984 285.43 143.18C285.729 143.375 286.063 143.553 286.431 143.714C286.81 143.864 287.212 143.99 287.638 144.094C288.075 144.186 288.529 144.232 289 144.232C289.874 144.232 290.552 144.077 291.035 143.766C291.518 143.456 291.759 142.99 291.759 142.369C291.759 142.024 291.679 141.737 291.518 141.507C291.368 141.266 291.144 141.059 290.845 140.886C290.546 140.714 290.173 140.564 289.724 140.438C289.288 140.3 288.787 140.162 288.224 140.024C287.603 139.874 287.057 139.713 286.586 139.541C286.114 139.369 285.718 139.162 285.396 138.92C285.086 138.679 284.85 138.386 284.689 138.041C284.528 137.696 284.447 137.282 284.447 136.799C284.447 136.213 284.557 135.695 284.775 135.247C284.994 134.799 285.298 134.419 285.689 134.109C286.08 133.798 286.546 133.568 287.086 133.419C287.626 133.258 288.213 133.178 288.845 133.178C289.673 133.178 290.42 133.304 291.087 133.557C291.754 133.81 292.346 134.149 292.863 134.574L292.139 135.833Z" fill="#409789"/>
</svg>
