<svg width="360" height="146" viewBox="0 0 360 146" fill="none" xmlns="http://www.w3.org/2000/svg">
<path d="M145.266 143.686H129.319C147.954 119.315 151.81 85.8313 139.1 57.8013C129.903 37.5173 113.801 22.6951 91.8769 17.3793C60.2573 9.71913 23.2617 26.7398 16.2027 60.0684C10.3287 87.8323 27.2121 118.688 57.3976 120.148C81.1768 121.298 102.989 102.311 97.5018 77.4069C93.6374 59.8452 76.3076 48.6726 59.0292 56.2813C45.6583 62.1638 40.583 79.966 51.1801 90.8294C62.9881 102.929 85.2988 91.3274 77.3724 75.3974C77.1491 74.9508 76.445 74.3239 76.7455 73.8516C76.7799 73.8001 77.6386 73.0959 77.6987 73.0873C78.0337 73.0272 79.4249 75.3459 79.6396 75.7581C85.7196 87.4802 75.8009 99.5201 63.7353 100.327C45.9074 101.521 35.5163 83.3324 39.8616 67.3164C43.6831 53.2327 58.3422 44.4218 72.5719 44.8941C98.8415 45.7614 114.102 72.5978 108.339 96.772C102.122 122.835 74.4527 137.16 48.9216 132.806C13.6093 126.786 -5.77305 89.9191 1.52645 56.2298C11.0501 12.2868 59.4071 -9.07062 100.671 3.63049C144.433 17.1045 167.517 64.7487 159.307 108.563C156.98 121.006 152.248 133.149 145.266 143.686Z" fill="#409789"/>
<path d="M196.749 26.4478C195.65 25.8037 194.86 24.7904 194.362 23.4249C193.864 22.0595 193.623 20.2733 193.623 18.0577V17.8773C193.623 14.6312 194.207 12.2438 195.384 10.7238C196.56 9.20382 198.432 8.43951 201.009 8.43951H201.112C203.078 8.43951 204.615 8.92901 205.723 9.91659C206.831 10.9042 207.475 12.4757 207.664 14.6312L205.569 15.0434C205.431 13.8669 205.165 12.9394 204.779 12.2696C204.392 11.5998 203.885 11.1275 203.258 10.8612C202.64 10.595 201.867 10.4576 200.948 10.4576H200.897C199.72 10.4576 198.767 10.6981 198.037 11.1704C197.307 11.6427 196.749 12.4242 196.38 13.5148C196.01 14.6054 195.822 16.0567 195.822 17.8687V18.0491C195.822 19.8611 195.993 21.3038 196.337 22.3687C196.68 23.4335 197.239 24.1978 197.994 24.6787C198.75 25.1511 199.798 25.3915 201.129 25.3915H201.232C202.529 25.3915 203.516 25.0566 204.203 24.3782C204.882 23.7083 205.337 22.5747 205.56 20.986L207.655 21.3725C207.398 23.5194 206.711 25.0566 205.594 26.0012C204.478 26.9459 203.018 27.4182 201.197 27.4182H201.12C199.291 27.4182 197.823 27.0919 196.723 26.4478H196.749Z" fill="#409789"/>
<path d="M210.91 8.86053H213.04V25.4261L212.705 25.0654H221.181V27.0062H210.919V8.86053H210.91Z" fill="#409789"/>
<path d="M223.096 5.82897L225.509 2.56567L226.78 3.65629L224.032 6.63621L223.096 5.82897ZM223.878 8.8604H226.007V27.0061H223.878V8.8604Z" fill="#409789"/>
<path d="M229.915 8.86053H231.993L240.855 23.9748L240.572 24.1551V8.86053H242.59V27.0062H240.495L231.452 11.6859H231.941V27.0062H229.923V8.86053H229.915Z" fill="#409789"/>
<path d="M246.48 8.86053H248.601V27.0062H246.48V8.86053Z" fill="#409789"/>
<path d="M254.965 26.4478C253.866 25.8037 253.075 24.7904 252.577 23.4249C252.079 22.0595 251.839 20.2733 251.839 18.0577V17.8773C251.839 14.6312 252.423 12.2438 253.599 10.7238C254.776 9.20382 256.648 8.43951 259.224 8.43951H259.327C261.294 8.43951 262.831 8.92901 263.939 9.91659C265.047 10.9042 265.691 12.4757 265.88 14.6312L263.784 15.0434C263.647 13.8669 263.381 12.9394 262.994 12.2696C262.608 11.5998 262.101 11.1275 261.474 10.8612C260.856 10.595 260.083 10.4576 259.164 10.4576H259.113C257.936 10.4576 256.983 10.6981 256.253 11.1704C255.523 11.6427 254.965 12.4242 254.596 13.5148C254.226 14.6054 254.037 16.0567 254.037 17.8687V18.0491C254.037 19.8611 254.209 21.3038 254.553 22.3687C254.896 23.4335 255.454 24.1978 256.21 24.6787C256.966 25.1511 258.013 25.3915 259.344 25.3915H259.448C260.744 25.3915 261.732 25.0566 262.419 24.3782C263.097 23.7083 263.552 22.5747 263.776 20.986L265.871 21.3725C265.613 23.5194 264.926 25.0566 263.81 26.0012C262.694 26.9459 261.234 27.4182 259.413 27.4182H259.336C257.507 27.4182 256.038 27.0919 254.939 26.4478H254.965Z" fill="#409789"/>
<path d="M273.746 8.86053H276.185L282.557 27.0062H280.324L278.28 21.1237L278.306 20.8918L274.519 9.77082H275.275L271.462 20.9691L271.436 21.2267L269.495 27.0062H267.237L273.746 8.86053ZM271.024 20.2649H278.933L279.345 21.9738H270.56L271.024 20.2649Z" fill="#409789"/>
<path d="M196.929 60.5581C195.693 60.103 194.679 59.3129 193.898 58.1879C193.117 57.063 192.601 55.4828 192.361 53.4476L196.835 52.5544C196.964 53.6794 197.213 54.5725 197.582 55.2252C197.943 55.8778 198.441 56.3502 199.076 56.6336C199.712 56.917 200.51 57.063 201.481 57.063H201.61C203.044 57.063 204.092 56.728 204.761 56.0496C205.423 55.3798 205.758 54.3578 205.758 52.9838V37.5089H210.197V53.5764C210.197 55.1909 209.845 56.5735 209.158 57.7156C208.463 58.8664 207.467 59.7337 206.178 60.3348C204.89 60.936 203.37 61.2279 201.618 61.2279H201.515C199.703 61.2279 198.183 61.0047 196.938 60.5495L196.929 60.5581Z" fill="#409789"/>
<path d="M220.356 37.5172H225.621L233.805 60.7124H229.099L226.617 53.4215L226.746 52.9922L222.108 39.0372H223.568L218.965 53.121L218.931 53.6534L216.647 60.7124H211.941L220.356 37.5172ZM218.141 51.6611H227.948L228.549 55.1391H217.514L218.141 51.6611Z" fill="#409789"/>
<path d="M236.226 37.5172H240.7V60.7124H236.226V37.5172Z" fill="#409789"/>
<path d="M244.883 37.5172H255.325C257.627 37.5172 259.387 38.1441 260.624 39.4065C261.861 40.6689 262.479 42.4895 262.479 44.8768V45.04C262.479 47.0495 261.998 48.6725 261.036 49.9092C260.074 51.1458 258.752 51.8757 257.077 52.099L258.468 51.2059L264.231 60.721H259.13L254.123 52.3395L254.922 52.7689H248.928L249.357 52.1763V60.7296H244.883V37.5344V37.5172ZM248.953 48.9474H254.123C255.36 48.9474 256.279 48.6124 256.871 47.934C257.472 47.2642 257.764 46.3367 257.764 45.1688V45.1001C257.764 43.9494 257.438 43.0648 256.785 42.4465C256.133 41.8282 255.154 41.5191 253.848 41.5191H249.074L249.34 41.2528V49.3424L248.945 48.9474H248.953Z" fill="#409789"/>
<path d="M272.784 37.5172H280.968C283.355 37.5172 285.279 37.9724 286.747 38.8912C288.216 39.8101 289.281 41.1068 289.942 42.7986C290.603 44.4904 290.938 46.5342 290.938 48.9474V49.0762C290.938 51.5065 290.62 53.5761 289.994 55.2936C289.367 57.0026 288.31 58.3337 286.842 59.2869C285.373 60.2401 283.415 60.7124 280.959 60.7124H272.775V37.5172H272.784ZM276.391 56.702H280.367C281.827 56.702 282.995 56.4358 283.879 55.9033C284.764 55.3709 285.399 54.5637 285.786 53.4816C286.172 52.3996 286.361 50.9998 286.361 49.2737V48.9388C286.361 47.2642 286.163 45.8816 285.768 44.7995C285.373 43.7175 284.738 42.9017 283.862 42.3435C282.986 41.7939 281.827 41.5191 280.367 41.5191H276.391L277.25 40.6603V57.5608L276.391 56.702Z" fill="#409789"/>
<path d="M294.451 37.5172H309.797V41.5276H298.401L298.933 40.9952V57.0026L298.504 56.702H309.84V60.7124H294.459V37.5172H294.451ZM297.997 47.3243H309.367V50.6048H297.997V47.3243Z" fill="#409789"/>
<path d="M197.488 88.9404C196.011 88.0903 194.928 86.7936 194.241 85.0503C193.554 83.307 193.211 81.0742 193.211 78.3605V77.9655C193.211 73.8777 194.018 70.8549 195.633 68.9055C197.247 66.9475 199.789 65.9685 203.258 65.9685H203.49C206.049 65.9685 208.111 66.6384 209.656 67.9694C211.202 69.3091 212.13 71.4131 212.439 74.2813L207.964 75.08C207.81 73.8691 207.535 72.8987 207.14 72.1774C206.745 71.4646 206.23 70.9407 205.603 70.623C204.976 70.3052 204.186 70.1421 203.233 70.1421H203.13C201.893 70.1421 200.897 70.3997 200.133 70.9236C199.368 71.4474 198.793 72.2804 198.406 73.4226C198.02 74.5733 197.822 76.0933 197.822 77.9998V78.2317C197.822 80.1295 198.003 81.6496 198.372 82.7917C198.733 83.9339 199.317 84.7582 200.115 85.2735C200.914 85.7888 201.979 86.055 203.327 86.055H203.49C204.77 86.055 205.775 85.6943 206.487 84.9815C207.209 84.2602 207.698 83.0837 207.964 81.452L212.37 82.2507C211.992 85.0588 211.03 87.0855 209.467 88.3479C207.913 89.6103 205.912 90.2372 203.482 90.2372H203.284C200.897 90.2372 198.965 89.8078 197.488 88.9576V88.9404Z" fill="#409789"/>
<path d="M221.98 66.4832H227.244L235.428 89.6784H230.722L228.24 82.3875L228.369 81.9582L223.732 68.0032H225.191L220.588 82.087L220.554 82.6194L218.27 89.6784H213.564L221.98 66.4832ZM219.764 80.6357H229.571L230.172 84.1137H219.137L219.764 80.6357Z" fill="#409789"/>
<path d="M237.858 66.4832H248.301C250.594 66.4832 252.363 67.1101 253.599 68.3725C254.836 69.6349 255.454 71.4555 255.454 73.8428V74.006C255.454 76.0155 254.973 77.6386 254.011 78.8752C253.05 80.1118 251.727 80.8418 250.053 81.0651L251.444 80.1719L257.206 89.687H252.105L247.098 81.3055L247.897 81.7349H241.894L242.324 81.1423V89.6956H237.85V66.5004L237.858 66.4832ZM241.929 77.922H247.098C248.335 77.922 249.254 77.587 249.847 76.9086C250.439 76.2388 250.74 75.3113 250.74 74.1434V74.0747C250.74 72.924 250.413 72.0394 249.761 71.4211C249.108 70.8028 248.129 70.4937 246.824 70.4937H242.049L242.315 70.2275V78.317L241.92 77.922H241.929Z" fill="#409789"/>
<path d="M257.009 66.4832H261.586L267.786 86.3035L267.056 86.3379L273.317 66.4918H277.791L270.139 89.687H264.703L257.017 66.4918L257.009 66.4832Z" fill="#409789"/>
<path d="M284.91 66.4832H290.183L298.367 89.6784H293.661L291.179 82.3875L291.308 81.9582L286.67 68.0032H288.13L283.527 82.087L283.493 82.6194L281.209 89.6784H276.502L284.918 66.4832H284.91ZM282.694 80.6357H292.501L293.094 84.1137H282.059L282.686 80.6357H282.694Z" fill="#409789"/>
<path d="M300.78 66.4832H305.254V86.2348L304.661 85.668H315.43V89.6784H300.78V66.4832Z" fill="#409789"/>
<path d="M318.35 66.4832H322.824V89.6784H318.35V66.4832ZM321.888 75.964H332.691V80.0087H321.888V75.964ZM331.798 66.4832H336.238V89.6784H331.798V66.4832Z" fill="#409789"/>
<path d="M344.027 88.9401C342.55 88.0899 341.468 86.7932 340.781 85.0499C340.094 83.3066 339.75 81.0824 339.75 78.3859V77.9565C339.75 75.2857 340.111 73.0529 340.841 71.2753C341.571 69.4976 342.687 68.1666 344.19 67.2821C345.693 66.3975 347.591 65.9595 349.892 65.9595H350.055C352.262 65.9595 354.1 66.3975 355.577 67.2649C357.046 68.1408 358.153 69.4547 358.892 71.2238C359.631 72.9928 360 75.2342 360 77.9479V78.2828C360 80.9364 359.648 83.1348 358.935 84.8953C358.222 86.6557 357.14 87.9782 355.672 88.8713C354.203 89.7645 352.34 90.211 350.09 90.211H349.824C347.436 90.211 345.504 89.7816 344.027 88.9315V88.9401ZM353.027 85.1271C353.791 84.5861 354.332 83.7531 354.667 82.6282C355.002 81.5032 355.165 80.0003 355.165 78.1197V77.9908C355.165 76.1359 354.993 74.6416 354.65 73.5166C354.306 72.3917 353.757 71.5587 352.992 71.0349C352.228 70.5024 351.197 70.2362 349.892 70.2362H349.789C348.441 70.2362 347.367 70.5024 346.577 71.0349C345.779 71.5673 345.212 72.4003 344.868 73.5338C344.525 74.6674 344.353 76.1702 344.353 78.0252V78.1883C344.353 80.0261 344.534 81.5032 344.886 82.6282C345.238 83.7531 345.804 84.5861 346.577 85.1271C347.35 85.6682 348.424 85.943 349.789 85.943H349.858C351.206 85.943 352.262 85.6768 353.027 85.1271Z" fill="#409789"/>
<path d="M193.915 95.4578H209.261V99.4682H197.865L198.398 98.9357V114.943L197.969 114.643H209.304V118.653H193.932V95.4578H193.915ZM197.462 105.265H208.832V108.545H197.462V105.265Z" fill="#409789"/>
<path d="M221.748 117.914C220.271 117.064 219.188 115.767 218.501 114.024C217.814 112.281 217.471 110.048 217.471 107.334V106.939C217.471 102.852 218.278 99.8288 219.893 97.8794C221.507 95.9214 224.049 94.9424 227.518 94.9424H227.75C230.309 94.9424 232.371 95.6123 233.916 96.9434C235.462 98.283 236.39 100.387 236.699 103.255L232.225 104.054C232.07 102.843 231.795 101.873 231.4 101.151C231.005 100.439 230.49 99.9147 229.863 99.5969C229.236 99.2792 228.446 99.116 227.493 99.116H227.39C226.153 99.116 225.157 99.3737 224.393 99.8975C223.628 100.421 223.053 101.254 222.666 102.397C222.28 103.547 222.083 105.067 222.083 106.974V107.206C222.083 109.103 222.263 110.623 222.632 111.766C222.993 112.908 223.577 113.732 224.375 114.247C225.174 114.763 226.239 115.029 227.587 115.029H227.75C229.03 115.029 230.035 114.668 230.747 113.955C231.469 113.234 231.958 112.058 232.225 110.426L236.63 111.225C236.252 114.033 235.29 116.059 233.727 117.322C232.173 118.584 230.172 119.211 227.742 119.211H227.544C225.157 119.211 223.225 118.782 221.748 117.932V117.914Z" fill="#409789"/>
<path d="M246.239 95.4578H251.504L259.688 118.653H254.982L252.5 111.362L252.629 110.933L247.991 96.9777H249.451L244.848 111.061L244.814 111.594L242.53 118.653H237.824L246.239 95.4578ZM244.015 109.61H253.822L254.424 113.088H243.388L244.015 109.61Z" fill="#409789"/>
<path d="M265.553 118.327C264.162 117.751 263.054 116.892 262.221 115.742C261.388 114.591 260.959 113.2 260.916 111.568L265.553 111.173C265.596 112.745 266.051 113.87 266.91 114.557C267.769 115.244 268.877 115.587 270.225 115.587H270.354C271.702 115.587 272.724 115.295 273.419 114.711C274.115 114.127 274.467 113.354 274.467 112.41V112.307C274.467 111.508 274.227 110.864 273.754 110.366C273.282 109.868 272.698 109.49 272.003 109.224C271.307 108.957 270.354 108.674 269.134 108.365C267.503 107.944 266.172 107.532 265.158 107.12C264.145 106.707 263.26 106.072 262.522 105.213C261.783 104.355 261.414 103.195 261.414 101.735V101.572C261.414 100.31 261.775 99.1848 262.487 98.1886C263.209 97.1924 264.222 96.4024 265.536 95.8184C266.85 95.2344 268.379 94.9424 270.122 94.9424H270.457C272.973 94.9424 274.982 95.5092 276.468 96.6514C277.962 97.7935 278.838 99.6141 279.104 102.139L274.433 102.637C274.252 101.203 273.797 100.172 273.059 99.554C272.32 98.9357 271.367 98.6266 270.191 98.6266H269.993C268.671 98.6266 267.692 98.8928 267.056 99.4252C266.421 99.9577 266.111 100.627 266.111 101.443V101.546C266.111 102.208 266.326 102.749 266.755 103.152C267.185 103.564 267.726 103.882 268.379 104.114C269.031 104.346 269.941 104.629 271.109 104.956C272.836 105.394 274.261 105.849 275.386 106.295C276.511 106.75 277.481 107.446 278.306 108.382C279.13 109.318 279.534 110.572 279.534 112.144V112.341C279.534 113.706 279.139 114.917 278.357 115.956C277.576 116.996 276.494 117.794 275.128 118.361C273.754 118.928 272.226 119.203 270.525 119.203H270.294C268.525 119.203 266.944 118.919 265.553 118.344V118.327Z" fill="#409789"/>
<path d="M287.726 99.0045L287.958 99.4682H280.899V95.4578H298.993V99.4682H291.9L292.166 98.9701V118.653H287.726V99.0045Z" fill="#409789"/>
<path d="M301.312 95.4578H311.755C314.048 95.4578 315.817 96.0846 317.053 97.347C318.29 98.6094 318.908 100.43 318.908 102.817V102.98C318.908 104.99 318.427 106.613 317.466 107.85C316.504 109.086 315.181 109.816 313.507 110.04L314.898 109.146L320.66 118.662H315.559L310.553 110.28L311.351 110.709H305.348L305.778 110.117V118.67H301.304V95.4749L301.312 95.4578ZM305.391 106.888H310.561C311.798 106.888 312.717 106.553 313.309 105.875C313.902 105.205 314.202 104.277 314.202 103.109V103.041C314.202 101.89 313.876 101.005 313.223 100.387C312.571 99.7687 311.592 99.4596 310.286 99.4596H305.512L305.778 99.1934V107.283L305.383 106.888H305.391Z" fill="#409789"/>
<path d="M326.165 117.915C324.687 117.065 323.605 115.768 322.918 114.025C322.231 112.282 321.888 110.057 321.888 107.361V106.931C321.888 104.261 322.249 102.028 322.979 100.25C323.709 98.4726 324.825 97.1415 326.328 96.257C327.831 95.3725 329.728 94.9344 332.03 94.9344H332.193C334.4 94.9344 336.238 95.3724 337.715 96.2398C339.183 97.1157 340.291 98.4296 341.03 100.199C341.768 101.968 342.138 104.209 342.138 106.923V107.258C342.138 109.911 341.785 112.11 341.073 113.87C340.36 115.631 339.278 116.953 337.809 117.846C336.341 118.739 334.477 119.186 332.227 119.186H331.961C329.574 119.186 327.642 118.757 326.165 117.906V117.915ZM335.164 114.102C335.929 113.561 336.47 112.728 336.805 111.603C337.14 110.478 337.303 108.975 337.303 107.095V106.966C337.303 105.111 337.131 103.617 336.787 102.492C336.444 101.367 335.894 100.534 335.13 100.01C334.366 99.4773 333.335 99.2111 332.03 99.2111H331.927C330.579 99.2111 329.505 99.4773 328.715 100.01C327.916 100.542 327.35 101.375 327.006 102.509C326.663 103.642 326.491 105.145 326.491 107V107.163C326.491 109.001 326.671 110.478 327.023 111.603C327.375 112.728 327.942 113.561 328.715 114.102C329.488 114.643 330.561 114.918 331.927 114.918H331.996C333.344 114.918 334.4 114.652 335.164 114.102Z" fill="#409789"/>
<path d="M199.56 142.297C198.857 142.297 198.216 142.157 197.635 141.876C197.064 141.585 196.572 141.206 196.16 140.738C195.747 140.26 195.429 139.717 195.204 139.108C194.979 138.499 194.867 137.876 194.867 137.239C194.867 136.574 194.984 135.937 195.218 135.328C195.462 134.719 195.794 134.18 196.216 133.712C196.637 133.243 197.134 132.873 197.705 132.602C198.286 132.321 198.914 132.18 199.588 132.18C200.291 132.18 200.928 132.33 201.499 132.63C202.071 132.92 202.562 133.304 202.975 133.782C203.387 134.26 203.705 134.803 203.93 135.412C204.155 136.012 204.267 136.625 204.267 137.253C204.267 137.918 204.146 138.555 203.902 139.164C203.668 139.773 203.34 140.311 202.918 140.78C202.506 141.239 202.01 141.609 201.429 141.89C200.857 142.162 200.235 142.297 199.56 142.297ZM196.146 137.239C196.146 137.745 196.225 138.236 196.384 138.714C196.553 139.183 196.787 139.599 197.087 139.965C197.387 140.33 197.747 140.621 198.169 140.836C198.59 141.051 199.059 141.159 199.574 141.159C200.108 141.159 200.586 141.047 201.007 140.822C201.429 140.588 201.785 140.288 202.075 139.923C202.375 139.548 202.6 139.126 202.75 138.658C202.909 138.19 202.989 137.717 202.989 137.239C202.989 136.733 202.904 136.246 202.736 135.777C202.576 135.3 202.342 134.883 202.033 134.527C201.733 134.161 201.373 133.871 200.951 133.656C200.539 133.44 200.08 133.332 199.574 133.332C199.04 133.332 198.562 133.445 198.141 133.67C197.719 133.895 197.359 134.19 197.059 134.555C196.768 134.92 196.544 135.337 196.384 135.806C196.225 136.274 196.146 136.752 196.146 137.239ZM212.903 133.375H209.461V142.227H208.196V133.375H204.753V132.25H212.903V133.375ZM218.085 142.297C217.383 142.297 216.741 142.157 216.16 141.876C215.589 141.585 215.097 141.206 214.685 140.738C214.272 140.26 213.954 139.717 213.729 139.108C213.504 138.499 213.392 137.876 213.392 137.239C213.392 136.574 213.509 135.937 213.743 135.328C213.987 134.719 214.319 134.18 214.741 133.712C215.162 133.243 215.659 132.873 216.23 132.602C216.811 132.321 217.439 132.18 218.113 132.18C218.816 132.18 219.453 132.33 220.024 132.63C220.596 132.92 221.087 133.304 221.5 133.782C221.912 134.26 222.23 134.803 222.455 135.412C222.68 136.012 222.792 136.625 222.792 137.253C222.792 137.918 222.671 138.555 222.427 139.164C222.193 139.773 221.865 140.311 221.443 140.78C221.031 141.239 220.535 141.609 219.954 141.89C219.383 142.162 218.76 142.297 218.085 142.297ZM214.671 137.239C214.671 137.745 214.75 138.236 214.909 138.714C215.078 139.183 215.312 139.599 215.612 139.965C215.912 140.33 216.272 140.621 216.694 140.836C217.116 141.051 217.584 141.159 218.099 141.159C218.633 141.159 219.111 141.047 219.532 140.822C219.954 140.588 220.31 140.288 220.6 139.923C220.9 139.548 221.125 139.126 221.275 138.658C221.434 138.19 221.514 137.717 221.514 137.239C221.514 136.733 221.429 136.246 221.261 135.777C221.102 135.3 220.867 134.883 220.558 134.527C220.258 134.161 219.898 133.871 219.476 133.656C219.064 133.44 218.605 133.332 218.099 133.332C217.565 133.332 217.087 133.445 216.666 133.67C216.244 133.895 215.884 134.19 215.584 134.555C215.294 134.92 215.069 135.337 214.909 135.806C214.75 136.274 214.671 136.752 214.671 137.239ZM224.55 142.227V132.25H228.821C229.262 132.25 229.664 132.344 230.03 132.531C230.404 132.709 230.723 132.953 230.985 133.262C231.257 133.562 231.468 133.904 231.617 134.288C231.767 134.663 231.842 135.047 231.842 135.44C231.842 135.787 231.791 136.124 231.688 136.452C231.594 136.77 231.454 137.061 231.266 137.323C231.088 137.585 230.868 137.81 230.606 137.998C230.353 138.185 230.067 138.321 229.749 138.405L232.166 142.227H230.732L228.456 138.644H225.814V142.227H224.55ZM225.814 137.52H228.835C229.098 137.52 229.332 137.464 229.538 137.351C229.753 137.239 229.936 137.089 230.086 136.902C230.236 136.705 230.353 136.48 230.437 136.227C230.521 135.974 230.564 135.712 230.564 135.44C230.564 135.159 230.512 134.897 230.409 134.653C230.315 134.4 230.184 134.18 230.016 133.993C229.856 133.796 229.664 133.646 229.439 133.543C229.224 133.431 228.995 133.375 228.751 133.375H225.814V137.52ZM233.785 142.227V132.25H238.056C238.497 132.25 238.899 132.344 239.265 132.531C239.639 132.709 239.958 132.953 240.22 133.262C240.492 133.562 240.703 133.904 240.853 134.288C241.002 134.663 241.077 135.047 241.077 135.44C241.077 135.787 241.026 136.124 240.923 136.452C240.829 136.77 240.689 137.061 240.501 137.323C240.323 137.585 240.103 137.81 239.841 137.998C239.588 138.185 239.302 138.321 238.984 138.405L241.401 142.227H239.967L237.691 138.644H235.049V142.227H233.785ZM235.049 137.52H238.07C238.333 137.52 238.567 137.464 238.773 137.351C238.988 137.239 239.171 137.089 239.321 136.902C239.471 136.705 239.588 136.48 239.672 136.227C239.757 135.974 239.799 135.712 239.799 135.44C239.799 135.159 239.747 134.897 239.644 134.653C239.55 134.4 239.419 134.18 239.251 133.993C239.091 133.796 238.899 133.646 238.675 133.543C238.459 133.431 238.23 133.375 237.986 133.375H235.049V137.52ZM243.02 142.227V132.25H244.284V142.227H243.02ZM247.935 134.611V142.227H246.67V132.25H247.653L253.836 140.021V132.265H255.101V142.227H254.033L247.935 134.611ZM261.53 142.297C260.827 142.297 260.186 142.157 259.605 141.876C259.033 141.585 258.542 141.206 258.129 140.738C257.717 140.26 257.399 139.717 257.174 139.108C256.949 138.499 256.837 137.876 256.837 137.239C256.837 136.574 256.954 135.937 257.188 135.328C257.431 134.719 257.764 134.18 258.186 133.712C258.607 133.243 259.104 132.873 259.675 132.602C260.256 132.321 260.884 132.18 261.558 132.18C262.261 132.18 262.898 132.33 263.469 132.63C264.04 132.92 264.532 133.304 264.944 133.782C265.357 134.26 265.675 134.803 265.9 135.412C266.125 136.012 266.237 136.625 266.237 137.253C266.237 137.918 266.115 138.555 265.872 139.164C265.638 139.773 265.31 140.311 264.888 140.78C264.476 141.239 263.98 141.609 263.399 141.89C262.827 142.162 262.204 142.297 261.53 142.297ZM258.115 137.239C258.115 137.745 258.195 138.236 258.354 138.714C258.523 139.183 258.757 139.599 259.057 139.965C259.357 140.33 259.717 140.621 260.139 140.836C260.56 141.051 261.029 141.159 261.544 141.159C262.078 141.159 262.556 141.047 262.977 140.822C263.399 140.588 263.755 140.288 264.045 139.923C264.345 139.548 264.57 139.126 264.72 138.658C264.879 138.19 264.958 137.717 264.958 137.239C264.958 136.733 264.874 136.246 264.706 135.777C264.546 135.3 264.312 134.883 264.003 134.527C263.703 134.161 263.343 133.871 262.921 133.656C262.509 133.44 262.05 133.332 261.544 133.332C261.01 133.332 260.532 133.445 260.111 133.67C259.689 133.895 259.328 134.19 259.029 134.555C258.738 134.92 258.513 135.337 258.354 135.806C258.195 136.274 258.115 136.752 258.115 137.239ZM273.854 134.344C273.741 134.213 273.592 134.087 273.404 133.965C273.217 133.843 273.006 133.735 272.772 133.642C272.538 133.539 272.28 133.459 271.999 133.403C271.727 133.337 271.442 133.304 271.142 133.304C270.364 133.304 269.793 133.45 269.428 133.74C269.072 134.03 268.894 134.428 268.894 134.934C268.894 135.206 268.945 135.431 269.048 135.609C269.151 135.787 269.31 135.941 269.526 136.073C269.751 136.194 270.027 136.302 270.355 136.396C270.683 136.489 271.072 136.588 271.521 136.691C272.036 136.803 272.5 136.934 272.912 137.084C273.334 137.225 273.69 137.403 273.98 137.618C274.28 137.834 274.505 138.096 274.655 138.405C274.814 138.714 274.894 139.094 274.894 139.543C274.894 140.021 274.8 140.438 274.613 140.794C274.425 141.14 274.168 141.431 273.84 141.665C273.521 141.89 273.142 142.058 272.702 142.171C272.261 142.274 271.784 142.325 271.268 142.325C270.5 142.325 269.769 142.208 269.076 141.974C268.392 141.731 267.769 141.379 267.207 140.92L267.812 139.852C267.961 140.012 268.154 140.171 268.388 140.33C268.631 140.489 268.903 140.635 269.203 140.766C269.512 140.888 269.84 140.991 270.186 141.075C270.542 141.15 270.912 141.187 271.296 141.187C272.008 141.187 272.561 141.061 272.955 140.808C273.348 140.555 273.545 140.176 273.545 139.67C273.545 139.389 273.479 139.154 273.348 138.967C273.226 138.77 273.043 138.602 272.8 138.461C272.556 138.321 272.252 138.199 271.887 138.096C271.531 137.984 271.123 137.871 270.664 137.759C270.158 137.637 269.713 137.506 269.329 137.365C268.945 137.225 268.622 137.056 268.36 136.859C268.107 136.663 267.915 136.424 267.784 136.143C267.652 135.862 267.587 135.524 267.587 135.131C267.587 134.653 267.676 134.232 267.854 133.866C268.032 133.501 268.28 133.192 268.599 132.939C268.917 132.686 269.296 132.499 269.737 132.377C270.177 132.246 270.655 132.18 271.17 132.18C271.844 132.18 272.453 132.283 272.997 132.489C273.54 132.695 274.022 132.972 274.444 133.318L273.854 134.344Z" fill="#409789"/>
</svg>
