<svg width="39" height="40" viewBox="0 0 39 40" fill="none" xmlns="http://www.w3.org/2000/svg">
<rect y="0.901855" width="38.3521" height="39" rx="13" fill="#409789"/>
<path d="M12.7528 18.1079C12.7528 18.1079 10.3932 19.0255 10 22.2371M25.5993 18.1079C25.5993 18.1079 27.959 19.0255 28.3522 22.2371M16.4233 18.1079C16.4233 18.1079 18.6255 18.6433 19.1761 21.3195C19.7266 18.6433 21.9289 18.1079 21.9289 18.1079M17.3409 24.99C17.3409 24.99 15.4139 25.3341 14.588 27.7428M21.0113 24.99C21.0113 24.99 22.9383 25.3341 23.7641 27.7428" stroke="white" stroke-width="1.83522" stroke-linecap="round"/>
<path d="M19.1761 25.9074C20.443 25.9074 21.4701 24.8803 21.4701 23.6134C21.4701 22.3464 20.443 21.3193 19.1761 21.3193C17.9091 21.3193 16.882 22.3464 16.882 23.6134C16.882 24.8803 17.9091 25.9074 19.1761 25.9074Z" stroke="white" stroke-width="1.83522" stroke-linecap="round" stroke-linejoin="round"/>
<path d="M23.7641 18.5667C25.2845 18.5667 26.5169 17.3342 26.5169 15.8139C26.5169 14.2935 25.2845 13.061 23.7641 13.061C22.2438 13.061 21.0113 14.2935 21.0113 15.8139C21.0113 17.3342 22.2438 18.5667 23.7641 18.5667Z" stroke="white" stroke-width="1.83522" stroke-linecap="round" stroke-linejoin="round"/>
<path d="M14.5881 18.5667C16.1084 18.5667 17.3409 17.3342 17.3409 15.8139C17.3409 14.2935 16.1084 13.061 14.5881 13.061C13.0677 13.061 11.8352 14.2935 11.8352 15.8139C11.8352 17.3342 13.0677 18.5667 14.5881 18.5667Z" stroke="white" stroke-width="1.83522" stroke-linecap="round" stroke-linejoin="round"/>
</svg>
