<svg width="43" height="44" viewBox="0 0 43 44" fill="none" xmlns="http://www.w3.org/2000/svg">
<rect y="0.901855" width="42.0226" height="42.452" rx="13" fill="#409789"/>
<path d="M18.2585 12.7371C18.0151 12.7371 17.7817 12.8337 17.6096 13.0058C17.4375 13.1779 17.3409 13.4113 17.3409 13.6547V17.7839C17.3409 18.0273 17.2442 18.2607 17.0721 18.4328C16.9 18.6048 16.6666 18.7015 16.4233 18.7015H12.7528C12.5095 18.7015 12.2761 18.7982 12.104 18.9703C11.9319 19.1424 11.8352 19.3758 11.8352 19.6191V25.0972C11.8352 25.3406 11.9319 25.574 12.104 25.7461C12.2761 25.9182 12.5095 26.0149 12.7528 26.0149H16.4233C16.6666 26.0149 16.9 26.1115 17.0721 26.2836C17.2442 26.4557 17.3409 26.6891 17.3409 26.9325V30.6029C17.3409 30.8463 17.4375 31.0797 17.6096 31.2517C17.7817 31.4238 18.0151 31.5205 18.2585 31.5205H23.7641C24.0075 31.5205 24.2409 31.4238 24.413 31.2517C24.585 31.0797 24.6817 30.8463 24.6817 30.6029V26.9325C24.6817 26.6891 24.7784 26.4557 24.9505 26.2836C25.1226 26.1115 25.356 26.0149 25.5993 26.0149H29.2698C29.5131 26.0149 29.7465 25.9182 29.9186 25.7461C30.0907 25.574 30.1874 25.3406 30.1874 25.0972V19.5916C30.1874 19.3482 30.0907 19.1148 29.9186 18.9428C29.7465 18.7707 29.5131 18.674 29.2698 18.674H25.5993C25.356 18.674 25.1226 18.5773 24.9505 18.4052C24.7784 18.2331 24.6817 17.9997 24.6817 17.7564V13.6547C24.6817 13.4113 24.585 13.1779 24.413 13.0058C24.2409 12.8337 24.0075 12.7371 23.7641 12.7371H18.2585ZM15.5056 13.6547C15.5056 12.9246 15.7957 12.2244 16.3119 11.7081C16.8282 11.1919 17.5284 10.9019 18.2585 10.9019H23.7641C24.4942 10.9019 25.1944 11.1919 25.7107 11.7081C26.2269 12.2244 26.5169 12.9246 26.5169 13.6547V16.8369H29.2698C29.9999 16.8369 30.7 17.127 31.2163 17.6432C31.7326 18.1595 32.0226 18.8597 32.0226 19.5898V25.0954C32.0226 25.8255 31.7326 26.5257 31.2163 27.042C30.7 27.5582 29.9999 27.8482 29.2698 27.8482H26.5169V30.6011C26.5169 31.3312 26.2269 32.0313 25.7107 32.5476C25.1944 33.0639 24.4942 33.3539 23.7641 33.3539H18.2585C17.5284 33.3539 16.8282 33.0639 16.3119 32.5476C15.7957 32.0313 15.5056 31.3312 15.5056 30.6011V27.8482H12.7528C12.0227 27.8482 11.3225 27.5582 10.8063 27.042C10.29 26.5257 10 25.8255 10 25.0954V19.621C10 18.8909 10.29 18.1907 10.8063 17.6744C11.3225 17.1582 12.0227 16.8681 12.7528 16.8681H15.5056V13.6547Z" fill="white"/>
</svg>
