<svg width="24" height="25" viewBox="0 0 24 25" fill="none" xmlns="http://www.w3.org/2000/svg">
<rect y="0.227051" width="24" height="24" rx="12" fill="#FBFFFE"/>
<path d="M15.8507 8.35426C15.3499 7.84853 14.7534 7.44754 14.0961 7.17465C13.4387 6.90177 12.7336 6.76244 12.0218 6.7648C9.03956 6.7648 6.60894 9.19542 6.60894 12.1777C6.60894 13.1336 6.8602 14.0621 7.32994 14.8814L6.56525 17.6889L9.43283 16.9352C10.2248 17.3667 11.1151 17.5961 12.0218 17.5961C15.0041 17.5961 17.4347 15.1654 17.4347 12.1832C17.4347 10.7357 16.8722 9.37566 15.8507 8.35426ZM12.0218 16.6784C11.2135 16.6784 10.4215 16.46 9.72778 16.0503L9.56392 15.952L7.85975 16.3999L8.31311 14.7394L8.20386 14.5701C7.75464 13.8529 7.51615 13.0239 7.51565 12.1777C7.51565 9.69793 9.53661 7.67696 12.0164 7.67696C13.218 7.67696 14.3487 8.1467 15.1953 8.99878C15.6146 9.41601 15.9468 9.91234 16.1728 10.459C16.3988 11.0056 16.514 11.5917 16.5117 12.1832C16.5226 14.6629 14.5016 16.6784 12.0218 16.6784ZM14.4907 13.3138C14.3541 13.2483 13.6878 12.9205 13.5676 12.8714C13.442 12.8277 13.3546 12.8058 13.2617 12.9369C13.1689 13.0735 12.9122 13.3794 12.8357 13.4667C12.7592 13.5596 12.6773 13.5705 12.5407 13.4995C12.4042 13.434 11.9672 13.2865 11.4538 12.8277C11.0496 12.4672 10.782 12.0248 10.7 11.8882C10.6236 11.7517 10.6891 11.6807 10.7601 11.6096C10.8202 11.5496 10.8967 11.4512 10.9622 11.3748C11.0277 11.2983 11.0551 11.2382 11.0988 11.1508C11.1425 11.058 11.1206 10.9815 11.0878 10.916C11.0551 10.8504 10.782 10.184 10.6727 9.91095C10.5635 9.64877 10.4488 9.68154 10.3668 9.67608H10.1047C10.0118 9.67608 9.86979 9.70885 9.74417 9.8454C9.624 9.98195 9.27443 10.3097 9.27443 10.976C9.27443 11.6424 9.76055 12.2869 9.8261 12.3743C9.89164 12.4672 10.782 13.8327 12.1365 14.4171C12.4588 14.5592 12.7101 14.6411 12.9067 14.7012C13.229 14.805 13.5239 14.7886 13.7588 14.7558C14.021 14.7176 14.5617 14.4281 14.6709 14.1113C14.7856 13.7945 14.7856 13.5268 14.7474 13.4667C14.7092 13.4067 14.6272 13.3794 14.4907 13.3138Z" fill="#409789"/>
</svg>
